<?xml version="1.0" encoding="UTF-8"?>
<svg id="_Слой_1" data-name=" Слой 1" xmlns="http://www.w3.org/2000/svg" xmlns:xlink="http://www.w3.org/1999/xlink" viewBox="0 0 1024 1024">
  <defs>
    <style>
      .cls-1 {
        fill: lime;
      }

      .cls-2 {
        fill: #e0e2ba;
        stroke: #4745d7;
      }

      .cls-2, .cls-3, .cls-4 {
        stroke-miterlimit: 10;
      }

      .cls-3 {
        fill: url(#_Безымянный_градиент_3);
      }

      .cls-3, .cls-4 {
        fill-rule: evenodd;
        stroke: #fff;
      }

      .cls-4 {
        fill: url(#_Безымянный_градиент_2);
      }

      .cls-5 {
        fill: #fff;
        isolation: isolate;
        opacity: .6;
      }
    </style>
    <linearGradient id="_Безымянный_градиент_2" data-name="Безымянный градиент 2" x1="167.89" y1="521.8" x2="846.15" y2="521.8" gradientUnits="userSpaceOnUse">
      <stop offset="0" stop-color="#000"/>
      <stop offset="1" stop-color="#31404e"/>
    </linearGradient>
    <linearGradient id="_Безымянный_градиент_3" data-name="Безымянный градиент 3" x1="581.35" y1="480.54" x2="712.17" y2="480.54" gradientUnits="userSpaceOnUse">
      <stop offset="0" stop-color="#31404e"/>
      <stop offset="1" stop-color="#000"/>
    </linearGradient>
  </defs>
  <rect class="cls-2" x="-98.48" y="-67.82" width="1247.35" height="1159.65"/>
  <path class="cls-4" d="M844.58,449.98c-5.38-39.54-18.67-75.33-39.68-107.09l-5.87-8.91,7.92-7.78c11.18-11.03,17.19-20.51,21.64-34.31,3.18-9.76,4.03-15.28,3.96-26.95,0-11.95-1.77-20.8-5.94-30.98-9.27-22.63-27.8-40.18-50.08-47.46-21.64-7.07-46.68-4.6-65.78,6.58-16.62,9.69-30.49,26.45-36.92,44.63l-1.77,5.02-6.65-1.84c-8.84-2.48-20.87-4.88-33.67-6.72l-10.47-1.49h-113.95c-125.34,0-118.41-.21-140.19,4.1-7.64,1.49-21.5,4.88-23.98,5.87-.78.28-1.2-.35-1.84-2.76-.5-1.77-2.19-6.01-3.82-9.41-8.06-17.05-21.71-31.26-37.7-39.33-14.85-7.5-33.46-10.33-50.22-7.5-25.04,4.17-47.46,21.01-59.2,44.56-9.76,19.52-11.39,43.36-4.31,64.44,1.27,3.75,3.18,8.63,4.39,10.96,4.67,9.34,13.09,19.81,21.64,27.16l3.47,2.97-4.67,7c-13.58,20.3-24.69,43.36-31.41,65.14-21.64,70.24-12.73,145.21,24.69,207.32,30.7,51,78.8,89.26,135.17,107.58,16.41,5.3,31.48,8.56,50.01,10.82,4.67.57,32.89.92,95.63,1.2l88.98.42,2.83,3.11c4.95,5.45,7.64,15.28,7.64,27.87s-2.83,24.97-10.26,39.61c-5.16,10.11-6.58,15.07-6.58,23.06,0,16.55,10.68,30.41,26.03,33.6,5.38,1.13,15.42.5,20.72-1.34,11.25-3.82,40.46-19.81,59.42-32.61,47.6-32.04,90.11-77.73,119.11-128.17,30.56-53.12,48.45-111.83,52.7-172.94,1.13-15.84.5-64.79-.99-75.4h0v-.07ZM386.16,512.86c-6.01,1.84-15.56,1.49-21.29-.71-8.28-3.18-15.7-10.89-19.03-19.73-1.84-4.81-2.48-13.72-1.34-18.96,2.4-11.67,12.45-22.28,24.05-25.39,11.18-3.04,23.62.64,31.69,9.2,6.58,7.07,9.48,14.22,9.48,23.62,0,14.71-9.55,27.73-23.41,31.97h-.14ZM515.6,513.21c-4.95,1.34-13.37,1.13-18.39-.42-15.56-4.81-25.61-21.86-22.56-38.27,2.33-12.38,12.24-23.34,24.05-26.52,13.3-3.61,27.59,1.84,35.37,13.37,4.31,6.37,5.94,11.67,5.94,19.1,0,15.63-9.83,28.72-24.4,32.68h0v.07ZM693.21,527.71c-8.49,8.84-17.97,14.43-29.78,17.68-7.57,2.05-25.11,2.26-31.9.35-16.62-4.67-29.5-13.72-38.55-27.02-18.32-26.95-14.57-63.8,8.84-86.58,9.55-9.27,20.37-14.85,33.95-17.47,6.72-1.27,19.81-.78,27.02,1.06,8.13,2.05,19.17,7.71,25.46,13.01,10.54,8.91,18.53,21.71,22.14,35.15,1.49,5.52,1.77,8.13,1.77,15.91.14,19.31-5.73,34.09-18.96,47.89h0Z"/>
  <path class="cls-3" d="M693.23,526.91c-8.49,8.63-17.96,14.2-29.8,17.41-7.52,2.09-25.06,2.23-31.89.28-16.57-4.6-29.52-13.51-38.57-26.6-18.38-26.46-14.62-62.66,8.77-85.08,9.47-9.19,20.47-14.62,33.98-17.13,6.68-1.25,19.77-.7,27.01.97,8.08,1.95,19.22,7.52,25.48,12.81,10.58,8.77,18.52,21.3,22.14,34.53,1.39,5.43,1.81,8.08,1.81,15.6,0,18.94-5.71,33.56-18.94,47.07h0v.14Z"/>
  <circle class="cls-5" cx="663.01" cy="463.26" r="16.25"/>
  <circle class="cls-1" cx="376.83" cy="480.92" r="32.49"/>
</svg>