<?xml version="1.0" encoding="UTF-8"?>
<svg id="_Слой_1" data-name=" Слой 1" xmlns="http://www.w3.org/2000/svg" viewBox="0 0 1024 1024">
  <defs>
    <style>
      .cls-1 {
        fill: #fff;
        fill-rule: evenodd;
        stroke: #fff;
        stroke-miterlimit: 10;
      }
    </style>
  </defs>
  <path class="cls-1" d="M989.24,410.46c-7.6-55.9-26.4-106.5-56.1-151.4l-8.3-12.6,11.2-11c15.8-15.6,24.3-29,30.6-48.5,4.5-13.8,5.7-21.6,5.6-38.1,0-16.9-2.5-29.4-8.4-43.8-13.1-32-39.3-56.8-70.8-67.1-30.6-10-66-6.5-93,9.3-23.5,13.7-43.1,37.4-52.2,63.1l-2.5,7.1-9.4-2.6c-12.5-3.5-29.5-6.9-47.6-9.5l-14.8-2.1h-161.1c-177.2,0-167.4-.3-198.2,5.8-10.8,2.1-30.4,6.9-33.9,8.3-1.1.4-1.7-.5-2.6-3.9-.7-2.5-3.1-8.5-5.4-13.3-11.4-24.1-30.7-44.2-53.3-55.6-21-10.6-47.3-14.6-71-10.6-35.4,5.9-67.1,29.7-83.7,63-13.8,27.6-16.1,61.3-6.1,91.1,1.8,5.3,4.5,12.2,6.2,15.5,6.6,13.2,18.5,28,30.6,38.4l4.9,4.2-6.6,9.9c-19.2,28.7-34.9,61.3-44.4,92.1-30.6,99.3-18,205.3,34.9,293.1,43.4,72.1,111.4,126.2,191.1,152.1,23.2,7.5,44.5,12.1,70.7,15.3,6.6.8,46.5,1.3,135.2,1.7l125.8.6,4,4.4c7,7.7,10.8,21.6,10.8,39.4s-4,35.3-14.5,56c-7.3,14.3-9.3,21.3-9.3,32.6,0,23.4,15.1,43,36.8,47.5,7.6,1.6,21.8.7,29.3-1.9,15.9-5.4,57.2-28,84-46.1,67.3-45.3,127.4-109.9,168.4-181.2,43.2-75.1,68.5-158.1,74.5-244.5,1.6-22.4.7-91.6-1.4-106.6h0v-.1ZM341.14,499.36c-8.5,2.6-22,2.1-30.1-1-11.7-4.5-22.2-15.4-26.9-27.9-2.6-6.8-3.5-19.4-1.9-26.8,3.4-16.5,17.6-31.5,34-35.9,15.8-4.3,33.4.9,44.8,13,9.3,10,13.4,20.1,13.4,33.4,0,20.8-13.5,39.2-33.1,45.2h-.2ZM524.14,499.86c-7,1.9-18.9,1.6-26-.6-22-6.8-36.2-30.9-31.9-54.1,3.3-17.5,17.3-33,34-37.5,18.8-5.1,39,2.6,50,18.9,6.1,9,8.4,16.5,8.4,27,0,22.1-13.9,40.6-34.5,46.2h0v.1ZM775.24,520.36c-12,12.5-25.4,20.4-42.1,25-10.7,2.9-35.5,3.2-45.1.5-23.5-6.6-41.7-19.4-54.5-38.2-25.9-38.1-20.6-90.2,12.5-122.4,13.5-13.1,28.8-21,48-24.7,9.5-1.8,28-1.1,38.2,1.5,11.5,2.9,27.1,10.9,36,18.4,14.9,12.6,26.2,30.7,31.3,49.7,2.1,7.8,2.5,11.5,2.5,22.5.2,27.3-8.1,48.2-26.8,67.7h0Z"/>
  <path class="cls-1" d="M763.44,387.56c-8.2-6.8-22.5-14-33.1-16.7-9.4-2.3-26.4-3-35.1-1.3-17.6,3.3-31.7,10.4-44.1,22.3-30.4,29.1-35.3,76.1-11.5,110.5,11.8,17,28.5,28.5,50.1,34.5,8.9,2.4,31.6,2.2,41.5-.4,15.4-4.1,27.7-11.3,38.7-22.6,17.2-17.6,24.8-36.4,24.6-61.1,0-9.9-.4-13.3-2.3-20.3-4.6-17.2-15-33.5-28.7-44.9h-.1,0ZM742.94,486.96c-6.1,6.2-12.9,10.2-21.4,12.5-5.4,1.5-18,1.6-22.9.2-11.9-3.3-21.2-9.7-27.7-19.1-13.2-19-10.5-45,6.3-61.1,6.8-6.6,14.7-10.5,24.4-12.3,4.8-.9,14.2-.5,19.4.7,5.8,1.4,13.8,5.4,18.3,9.2,7.6,6.3,13.3,15.3,15.9,24.8,1,3.9,1.3,5.8,1.3,11.2,0,13.6-4.1,24.1-13.6,33.8h0v.1Z"/>
</svg>
