<?xml version="1.0" encoding="UTF-8"?>
<svg id="_Слой_1" data-name=" Слой 1" xmlns="http://www.w3.org/2000/svg" viewBox="0 0 1024 1024">
  <defs>
    <style>
      .cls-1 {
        fill: #fff;
      }
    </style>
  </defs>
  <path class="cls-1" d="M519.55,31.58c12.15,2.56,30.02,18.09,30.02,30.96v117.27c17.3-11.98,40.26-47.64,61.14-50.49,37.4-5.1,58.28,33.18,35.51,61.77l-96.65,96.61v158.55l137.84-78.88,35.75-133.12c17.19-42.47,78.31-27.1,72.05,21.39-1.01,7.85-16.86,55.2-14.84,57.37l102.68-57.73c47.31-11.02,69.93,41.96,27.35,70.51-28.82,19.32-63.93,33.51-92.5,53.85,20.03,7.96,60.78,9.94,75.03,26.27,23,26.36.71,64.94-32.58,62.7l-135.19-35.49-135.01,76.76-1.17,3.87,136.17,76.95,135.16-35.46c33.1-2.72,55.6,36.31,32.61,62.66-14.25,16.33-55.01,18.32-75.03,26.27l99.27,58.34c31.56,22.71,12.35,73.17-26.88,68.16-6.04-.77-11.98-4.37-17.37-7.02-31.56-15.5-60.49-38.02-92.55-52.85-2.01,2.17,13.83,49.52,14.84,57.37,6.27,48.49-54.86,63.86-72.05,21.39l-35.75-133.12-137.84-78.88v158.55l96.65,96.61c22.77,28.6,1.9,66.85-35.51,61.77-16.94-2.3-43.18-35.97-57.04-48.36-.84-.75.18-3.45-4.1-2.12v117.27c0,16.81-22.54,31.4-38.45,31.1-15.17-.28-36.6-15.18-36.6-31.1v-117.27c-17.3,11.98-40.26,47.64-61.14,50.49-37.4,5.1-58.28-33.18-35.51-61.77l96.65-96.61v-158.55l-138.34,79.31-35.25,132.68c-17.19,42.47-78.31,27.1-72.05-21.39,1.03-7.96,16.8-54.89,14.83-57.38l-102.67,57.74c-43.14,13.88-68.94-41.45-33.01-66.79l98.17-57.57c-20.03-8.35-60.74-9.89-75.03-26.27-22.98-26.34-.52-65.37,32.61-62.66l135.13,35.44,135.03-76.75,1.17-3.87-136.2-76.94-135.16,35.48c-33.25,2.26-55.6-36.31-32.58-62.7,14.3-16.38,55-17.92,75.03-26.27l-99.31-58.3c-31.48-23.03-12.53-73.24,26.92-68.19,6.04.77,11.98,4.37,17.37,7.02,31.21,15.32,60.87,37.86,92.54,52.86,1.96-2.49-13.81-49.42-14.83-57.38-6.27-48.49,54.86-63.86,72.05-21.39l35.25,132.68,138.34,79.31v-158.55l-96.65-96.61c-22.77-28.59-1.89-66.87,35.51-61.77,20.88,2.85,43.84,38.51,61.14,50.49V62.54c0-12.87,17.87-28.4,30.02-30.96h15.01Z"/>
</svg>